<?xml version="1.0" standalone="no"?>
<svg xmlns="http://www.w3.org/2000/svg" xmlns:xlink="http://www.w3.org/1999/xlink" width="222pt" height="229pt" viewBox="0.00 0.00 221.69 228.96">
<g id="graph0" class="graph" transform="translate(55.05091685307727,156.72130118820638) scale(0.5868469528424434)" data-name="Tree">

<polygon fill="lightgrey" stroke="none" points="-4,4 -4,-224.96 217.69,-224.96 217.69,4 -4,4" style=""/>
<text text-anchor="middle" x="106.85" y="-204.36" font-family="Times,serif" font-size="14.00" style="">Arbol Binario</text>
<!-- 15 -->
<g id="node1" class="node" pointer-events="visible" data-name="15">

<ellipse fill="lightblue" stroke="black" cx="104" cy="-175.47" rx="20.89" ry="20.89" style=""/>
<text text-anchor="middle" x="104" y="-171.27" font-family="Times,serif" font-size="14.00" style="">15</text>
</g>
<!-- 9 -->
<g id="node2" class="node" pointer-events="visible" data-name="9">

<ellipse fill="lightblue" stroke="black" cx="75" cy="-98.08" rx="18" ry="18" style=""/>
<text text-anchor="middle" x="75" y="-93.88" font-family="Times,serif" font-size="14.00" style="">9</text>
</g>
<!-- 15&#45;&gt;9 -->
<g id="edge1" class="edge" data-name="15-&gt;9">

<path fill="none" stroke="black" stroke-width="2" d="M96.68,-155.44C93.41,-146.93 89.48,-136.71 85.87,-127.33" style=""/>
<polygon fill="black" stroke="black" stroke-width="2" points="89.18,-126.19 82.32,-118.11 82.65,-128.7 89.18,-126.19" style=""/>
</g>
<!-- 20 -->
<g id="node3" class="node" pointer-events="visible" data-name="20">

<ellipse fill="lightblue" stroke="black" cx="134" cy="-98.08" rx="20.89" ry="20.89" style=""/>
<text text-anchor="middle" x="134" y="-93.88" font-family="Times,serif" font-size="14.00" style="">20</text>
</g>
<!-- 15&#45;&gt;20 -->
<g id="edge2" class="edge" data-name="15-&gt;20">

<path fill="none" stroke="black" stroke-width="2" d="M111.42,-155.83C114.53,-148.01 118.23,-138.7 121.73,-129.9" style=""/>
<polygon fill="black" stroke="black" stroke-width="2" points="124.9,-131.42 125.34,-120.84 118.39,-128.83 124.9,-131.42" style=""/>
</g>
<!-- 6 -->
<g id="node4" class="node" pointer-events="visible" data-name="6">

<ellipse fill="lightblue" stroke="black" cx="18" cy="-20.69" rx="18" ry="18" style=""/>
<text text-anchor="middle" x="18" y="-16.49" font-family="Times,serif" font-size="14.00" style="">6</text>
</g>
<!-- 9&#45;&gt;6 -->
<g id="edge3" class="edge" data-name="9-&gt;6">

<path fill="none" stroke="black" stroke-width="2" d="M64.55,-83.25C56.64,-72.8 45.59,-58.18 36.24,-45.82" style=""/>
<polygon fill="black" stroke="black" stroke-width="2" points="39.23,-43.97 30.41,-38.1 33.65,-48.19 39.23,-43.97" style=""/>
</g>
<!-- 14 -->
<g id="node5" class="node" pointer-events="visible" data-name="14">

<ellipse fill="lightblue" stroke="black" cx="75" cy="-20.69" rx="20.89" ry="20.89" style=""/>
<text text-anchor="middle" x="75" y="-16.49" font-family="Times,serif" font-size="14.00" style="">14</text>
</g>
<!-- 9&#45;&gt;14 -->
<g id="edge4" class="edge" data-name="9-&gt;14">

<path fill="none" stroke="black" stroke-width="2" d="M75,-79.6C75,-72.23 75,-63.41 75,-54.89" style=""/>
<polygon fill="black" stroke="black" stroke-width="2" points="78.5,-55.05 75,-45.05 71.5,-55.05 78.5,-55.05" style=""/>
</g>
<!-- 17 -->
<g id="node6" class="node" pointer-events="visible" data-name="17">

<ellipse fill="lightblue" stroke="black" cx="134" cy="-20.69" rx="20.89" ry="20.89" style=""/>
<text text-anchor="middle" x="134" y="-16.49" font-family="Times,serif" font-size="14.00" style="">17</text>
</g>
<!-- 20&#45;&gt;17 -->
<g id="edge5" class="edge" data-name="20-&gt;17">

<path fill="none" stroke="black" stroke-width="2" d="M134,-76.88C134,-70.12 134,-62.39 134,-54.91" style=""/>
<polygon fill="black" stroke="black" stroke-width="2" points="137.5,-54.98 134,-44.98 130.5,-54.98 137.5,-54.98" style=""/>
</g>
<!-- 64 -->
<g id="node7" class="node" pointer-events="visible" data-name="64">

<ellipse fill="lightblue" stroke="black" cx="193" cy="-20.69" rx="20.89" ry="20.89" style=""/>
<text text-anchor="middle" x="193" y="-16.49" font-family="Times,serif" font-size="14.00" style="">64</text>
</g>
<!-- 20&#45;&gt;64 -->
<g id="edge6" class="edge" data-name="20-&gt;64">

<path fill="none" stroke="black" stroke-width="2" d="M146.51,-81.09C154.1,-71.4 163.96,-58.8 172.65,-47.7" style=""/>
<polygon fill="black" stroke="black" stroke-width="2" points="175.23,-50.07 178.64,-40.04 169.72,-45.76 175.23,-50.07" style=""/>
</g>
</g>
</svg>