<?xml version="1.0" standalone="no"?>
<svg xmlns="http://www.w3.org/2000/svg" xmlns:xlink="http://www.w3.org/1999/xlink" width="267pt" height="296pt" viewBox="0.00 0.00 266.69 295.57">
<g id="graph0" class="graph" transform="translate(14.567421841310335,260.03300610458007) scale(0.8705505680916722)" data-name="Tree">

<polygon fill="lightgrey" stroke="none" points="-4,4 -4,-291.57 262.69,-291.57 262.69,4 -4,4"/>
<text text-anchor="middle" x="129.35" y="-270.97" font-family="Times,serif" font-size="14.00">Arbol AVL</text>
<!-- 1 -->

<g id="node1" class="node" pointer-events="visible" data-name="5" data-comment="1">

<ellipse fill="lightblue" stroke="black" cx="99" cy="-244.77" rx="18" ry="18"/>
<text text-anchor="middle" x="99" y="-240.57" font-family="Times,serif" font-size="14.00">5</text>
</g><!-- 3 -->
<g id="node2" class="node" pointer-events="visible" data-name="3">

<ellipse fill="lightblue" stroke="black" cx="72" cy="-172.77" rx="18" ry="18"/>
<text text-anchor="middle" x="72" y="-168.57" font-family="Times,serif" font-size="14.00">3</text>
</g>
<!-- 5&#45;&gt;3 -->
<g id="edge1" class="edge" data-name="5-&gt;3">

<path fill="none" stroke="black" stroke-width="2" d="M92.74,-227.54C89.81,-219.94 86.23,-210.67 82.88,-201.98"/>
<polygon fill="black" stroke="black" stroke-width="2" points="86.18,-200.82 79.32,-192.75 79.65,-203.33 86.18,-200.82"/>
</g>
<!-- 8 -->
<g id="node3" class="node" pointer-events="visible" data-name="8">

<ellipse fill="lightblue" stroke="black" cx="126" cy="-172.77" rx="18" ry="18"/>
<text text-anchor="middle" x="126" y="-168.57" font-family="Times,serif" font-size="14.00">8</text>
</g>
<!-- 5&#45;&gt;8 -->
<g id="edge2" class="edge" data-name="5-&gt;8">

<path fill="none" stroke="black" stroke-width="2" d="M105.26,-227.54C108.19,-219.94 111.77,-210.67 115.12,-201.98"/>
<polygon fill="black" stroke="black" stroke-width="2" points="118.35,-203.33 118.68,-192.75 111.82,-200.82 118.35,-203.33"/>
</g>
<!-- 2 -->
<g id="node4" class="node" pointer-events="visible" data-name="2">

<ellipse fill="lightblue" stroke="black" cx="18" cy="-98.08" rx="18" ry="18"/>
<text text-anchor="middle" x="18" y="-93.88" font-family="Times,serif" font-size="14.00">2</text>
</g>
<!-- 3&#45;&gt;2 -->
<g id="edge3" class="edge" data-name="3-&gt;2">

<path fill="none" stroke="black" stroke-width="2" d="M61.59,-157.76C54.34,-148 44.49,-134.74 35.99,-123.3"/>
<polygon fill="black" stroke="black" stroke-width="2" points="38.96,-121.42 30.18,-115.48 33.34,-125.6 38.96,-121.42"/>
</g>
<!-- 4 -->
<g id="node5" class="node" pointer-events="visible" data-name="4">

<ellipse fill="lightblue" stroke="black" cx="72" cy="-98.08" rx="18" ry="18"/>
<text text-anchor="middle" x="72" y="-93.88" font-family="Times,serif" font-size="14.00">4</text>
</g>
<!-- 3&#45;&gt;4 -->
<g id="edge4" class="edge" data-name="3-&gt;4">

<path fill="none" stroke="black" stroke-width="2" d="M72,-154.55C72,-147 72,-137.91 72,-129.29"/>
<polygon fill="black" stroke="black" stroke-width="2" points="75.5,-129.46 72,-119.46 68.5,-129.46 75.5,-129.46"/>
</g>
<!-- 1 -->
<!-- 1 -->
<g id="node6" class="node" pointer-events="visible" data-name="1">

<ellipse fill="lightblue" stroke="black" cx="18" cy="-20.69" rx="18" ry="18"/>
<text text-anchor="middle" x="18" y="-16.49" font-family="Times,serif" font-size="14.00">1</text>
</g><g id="node7" class="node" pointer-events="visible" data-name="7" data-comment="1">

<ellipse fill="lightblue" stroke="black" cx="126" cy="-98.08" rx="18" ry="18"/>
<text text-anchor="middle" x="126" y="-93.88" font-family="Times,serif" font-size="14.00">7</text>
</g>
<!-- 2&#45;&gt;1 -->
<g id="node8" class="node" pointer-events="visible" data-name="10" data-comment="2-&gt;1">

<ellipse fill="lightblue" stroke="black" cx="183" cy="-98.08" rx="20.89" ry="20.89"/>
<text text-anchor="middle" x="183" y="-93.88" font-family="Times,serif" font-size="14.00">10</text>
</g>
<!-- 2&#45;&gt;1 -->
<!-- 2&#45;&gt;1 -->
<!-- 2&#45;&gt;1 -->
<g id="edge5" class="edge" data-name="2-&gt;1">

<path fill="none" stroke="black" stroke-width="2" d="M18,-79.6C18,-71.41 18,-61.43 18,-52.07"/>
<polygon fill="black" stroke="black" stroke-width="2" points="21.5,-52.11 18,-42.11 14.5,-52.11 21.5,-52.11"/>
</g><g id="edge6" class="edge" data-name="8-&gt;7" data-comment="2-&gt;1">

<path fill="none" stroke="black" stroke-width="2" d="M126,-154.55C126,-147 126,-137.91 126,-129.29"/>
<polygon fill="black" stroke="black" stroke-width="2" points="129.5,-129.46 126,-119.46 122.5,-129.46 129.5,-129.46"/>
</g>
<g id="edge7" class="edge" data-name="8-&gt;10" data-comment="2-&gt;1">

<path fill="none" stroke="black" stroke-width="2" d="M136.72,-158.1C143.96,-148.88 153.73,-136.4 162.44,-125.3"/>
<polygon fill="black" stroke="black" stroke-width="2" points="165.05,-127.64 168.47,-117.61 159.54,-123.32 165.05,-127.64"/>
</g>


<!-- 6 -->
<g id="node9" class="node" pointer-events="visible" data-name="6">

<ellipse fill="lightblue" stroke="black" cx="126" cy="-20.69" rx="18" ry="18"/>
<text text-anchor="middle" x="126" y="-16.49" font-family="Times,serif" font-size="14.00">6</text>
</g>
<!-- 7&#45;&gt;6 -->
<g id="edge8" class="edge" data-name="7-&gt;6">

<path fill="none" stroke="black" stroke-width="2" d="M126,-79.6C126,-71.41 126,-61.43 126,-52.07"/>
<polygon fill="black" stroke="black" stroke-width="2" points="129.5,-52.11 126,-42.11 122.5,-52.11 129.5,-52.11"/>
</g>
<!-- 9 -->
<g id="node10" class="node" pointer-events="visible" data-name="9">

<ellipse fill="lightblue" stroke="black" cx="181" cy="-20.69" rx="18" ry="18"/>
<text text-anchor="middle" x="181" y="-16.49" font-family="Times,serif" font-size="14.00">9</text>
</g>
<!-- 10&#45;&gt;9 -->
<g id="edge9" class="edge" data-name="10-&gt;9">

<path fill="none" stroke="black" stroke-width="2" d="M182.46,-76.88C182.26,-69.24 182.03,-60.38 181.8,-52.01"/>
<polygon fill="black" stroke="black" stroke-width="2" points="185.31,-52.06 181.54,-42.16 178.31,-52.25 185.31,-52.06"/>
</g>
<!-- 11 -->
<g id="node11" class="node" pointer-events="visible" data-name="11">

<ellipse fill="lightblue" stroke="black" cx="238" cy="-20.69" rx="20.89" ry="20.89"/>
<text text-anchor="middle" x="238" y="-16.49" font-family="Times,serif" font-size="14.00">11</text>
</g>
<!-- 10&#45;&gt;11 -->
<g id="edge10" class="edge" data-name="10-&gt;11">

<path fill="none" stroke="black" stroke-width="2" d="M194.93,-80.72C201.81,-71.3 210.61,-59.23 218.47,-48.47"/>
<polygon fill="black" stroke="black" stroke-width="2" points="221.05,-50.87 224.12,-40.73 215.39,-46.74 221.05,-50.87"/>
</g>
</g>
</svg>