<?xml version="1.0" standalone="no"?>
<svg xmlns="http://www.w3.org/2000/svg" xmlns:xlink="http://www.w3.org/1999/xlink" width="144pt" height="282pt" viewBox="0.00 0.00 144.08 282.04">
<g id="graph0" class="graph" transform="translate(4,278.0400085449219) scale(1)" data-name="Tree">

<polygon fill="lightgrey" stroke="none" points="-4,4 -4,-278.04 140.08,-278.04 140.08,4 -4,4"/>
<text text-anchor="middle" x="68.04" y="-257.44" font-family="Times,serif" font-size="14.00">KD-tree</text>
<!-- ( -->
<g id="node1" class="node" pointer-events="visible" data-name="(1,3)" data-comment="(">

<ellipse fill="lightblue" stroke="black" cx="67.54" cy="-219.7" rx="29.58" ry="29.58"/>
<text text-anchor="middle" x="67.54" y="-215.5" font-family="Times,serif" font-size="14.00">(1,3)</text>
</g>

<!-- (1,3)&#45;&gt; --><g id="node2" class="node" pointer-events="visible" data-name="(4,5)" data-comment="(1,3)-&gt;">

<ellipse fill="lightblue" stroke="black" cx="29.54" cy="-124.62" rx="29.58" ry="29.58"/>
<text text-anchor="middle" x="29.54" y="-120.42" font-family="Times,serif" font-size="14.00">(4,5)</text>
</g>
<!-- (1,3)&#45;&gt;4,5 -->
<g id="edge1" class="edge" data-name="(1,3)-&gt;(4,5)" data-comment="(1,3)-&gt;4,5">

<path fill="none" stroke="black" stroke-width="2" d="M56.55,-191.77C53.04,-183.19 49.09,-173.51 45.32,-164.26"/>
<polygon fill="black" stroke="black" stroke-width="2" points="48.67,-163.22 41.65,-155.28 42.19,-165.86 48.67,-163.22"/>
</g>

<!-- (1,3)&#45;&gt; --><g id="node3" class="node" pointer-events="visible" data-name="(6,7)" data-comment="(1,3)-&gt;">

<ellipse fill="lightblue" stroke="black" cx="106.54" cy="-124.62" rx="29.58" ry="29.58"/>
<text text-anchor="middle" x="106.54" y="-120.42" font-family="Times,serif" font-size="14.00">(6,7)</text>
</g>
<!-- (1,3)&#45;&gt;( -->
<g id="edge2" class="edge" data-name="(1,3)-&gt;(6,7)" data-comment="(1,3)-&gt;(">

<path fill="none" stroke="black" stroke-width="2" d="M78.61,-192.27C82.24,-183.6 86.36,-173.78 90.29,-164.39"/>
<polygon fill="black" stroke="black" stroke-width="2" points="93.5,-165.8 94.13,-155.22 87.04,-163.09 93.5,-165.8"/>
</g>

<!-- (4,5)&#45;&gt; --><g id="node4" class="node" pointer-events="visible" data-name="(3,8)" data-comment="(4,5)-&gt;">

<ellipse fill="lightblue" stroke="black" cx="29.54" cy="-29.54" rx="29.58" ry="29.58"/>
<text text-anchor="middle" x="29.54" y="-25.34" font-family="Times,serif" font-size="14.00">(3,8)</text>
</g>
<!-- (4,5)&#45;&gt;() -->
<g id="edge3" class="edge" data-name="(4,5)-&gt;(3,8)" data-comment="(4,5)-&gt;()">

<path fill="none" stroke="black" stroke-width="2" d="M29.54,-94.68C29.54,-87.59 29.54,-79.85 29.54,-72.29"/>
<polygon fill="black" stroke="black" stroke-width="2" points="33.04,-72.49 29.54,-62.49 26.04,-72.49 33.04,-72.49"/>
</g>
</g>
</svg>